<svg width="130" height="38" viewBox="0 0 130 38" fill="none" xmlns="http://www.w3.org/2000/svg">
<path d="M4.55481 0C2.04148 0 0 2.014 0 4.4935V33.5065C0 35.9765 2.04148 38 4.55481 38H125.378C127.881 38 130 35.9765 130 33.5065V4.4935C130 2.014 127.881 0 125.378 0H4.55481ZM27.1844 5.909C27.3481 7.3435 26.7704 8.7495 25.9326 9.7945C25.0563 10.811 23.6504 11.5995 22.283 11.495C22.1 10.1175 22.7933 8.645 23.5733 7.752C24.4496 6.7355 25.9711 5.9565 27.1844 5.909ZM67.4459 6.232H68.457V12.7585H67.4459V6.232ZM83.9704 6.232H84.9333V11.552C84.9333 11.989 85.0296 12.3975 85.0296 12.7585H84.1245V12.046C83.8356 12.5875 83.3541 12.863 82.6704 12.863C82.1215 12.863 81.6689 12.654 81.303 12.2265C80.9467 11.8085 80.7637 11.2575 80.7637 10.5735C80.7637 9.8515 80.9563 9.2625 81.3511 8.816C81.7267 8.398 82.1985 8.189 82.7474 8.189C83.3637 8.189 83.7874 8.3885 84.0282 8.797L83.9704 6.232ZM107.274 6.232H108.237V8.93H108.333C108.622 8.436 109.104 8.189 109.681 8.189C110.067 8.189 110.452 8.322 110.741 8.5975C111.03 8.93 111.222 9.4335 111.222 10.0985V12.7585H110.163V10.2125C110.163 9.4145 109.874 9.006 109.296 9.006C108.815 9.006 108.526 9.2435 108.333 9.709C108.333 9.804 108.237 9.9275 108.237 10.07V12.7585H107.274V6.232ZM43.7956 6.5075C44.903 6.5075 45.7311 6.745 46.2896 7.2105C46.9156 7.752 47.2333 8.512 47.2333 9.5095C47.2333 10.6305 46.8963 11.4665 46.2126 12.0365C45.5867 12.559 44.6911 12.8155 43.5356 12.8155C42.9578 12.8155 42.4667 12.8155 42.0622 12.7205V6.612C42.5919 6.517 43.1696 6.4885 43.7956 6.4885V6.5075ZM104.77 7.163V8.284H105.83V9.025H104.77V11.2005C104.77 11.761 104.963 12.0365 105.348 12.0365C105.541 12.0365 105.637 12.0365 105.83 11.9415V12.692C105.637 12.787 105.348 12.806 105.059 12.806C104.674 12.806 104.289 12.6825 104.096 12.445C103.904 12.2075 103.807 11.8085 103.807 11.2385V9.025H103.133V8.284H103.807V7.467L104.77 7.163ZM43.8822 7.2865C43.5644 7.2865 43.2948 7.2865 43.0637 7.3815V12.027H43.7474C44.5178 12.027 45.1148 11.8085 45.5385 11.3905C45.9622 10.963 46.1741 10.3455 46.1741 9.538C46.1741 8.8065 45.9719 8.2555 45.5867 7.866C45.2015 7.4765 44.6333 7.2865 43.8822 7.2865ZM114.785 8.1795C115.459 8.1795 115.941 8.4265 116.326 8.9015C116.615 9.2815 116.711 9.7565 116.711 10.3075V10.7635H113.63C113.63 11.2005 113.822 11.5425 114.111 11.7705C114.304 11.9795 114.689 12.084 115.074 12.084C115.556 12.084 115.941 11.989 116.326 11.875L116.422 12.5685C116.037 12.749 115.556 12.844 114.978 12.844C114.207 12.844 113.726 12.6445 113.244 12.236C112.859 11.8275 112.667 11.2765 112.667 10.583C112.667 9.9085 112.859 9.348 113.244 8.9015C113.63 8.4265 114.111 8.1795 114.785 8.1795ZM64.0948 8.1795C64.5185 8.1795 64.8652 8.322 65.1444 8.588C65.5007 8.9205 65.6741 9.4145 65.6741 10.07V12.7585H64.663V10.1935C64.663 9.3955 64.3548 9.006 63.7481 9.006C63.4496 9.006 63.2089 9.1105 63.0163 9.329C62.8333 9.5475 62.737 9.804 62.737 10.0985V12.7585H61.7259V9.557V8.2745H62.6119L62.7082 8.9775C62.8333 8.759 63.0067 8.5785 63.2378 8.436C63.5074 8.265 63.8156 8.1795 64.1526 8.1795H64.0948ZM97.4519 8.1795C97.9333 8.1795 98.2222 8.322 98.5111 8.588C98.8963 8.9205 99.0889 9.4145 99.0889 10.07V12.7585H98.0296V10.1935C98.0296 9.3955 97.7407 9.006 97.163 9.006C96.8741 9.006 96.5852 9.1105 96.3926 9.329C96.2 9.5475 96.1037 9.804 96.1037 10.0985V12.7585H95.1407V9.557C95.1407 9.1675 95.1407 8.74 95.0444 8.2745H96.0074V8.9775C96.2 8.759 96.3926 8.5785 96.5852 8.436C96.8741 8.265 97.163 8.1795 97.4519 8.1795ZM50.6904 8.1795C51.3548 8.1795 51.8941 8.398 52.2985 8.835C52.6837 9.2625 52.8763 9.804 52.8763 10.4785C52.8763 11.1625 52.6741 11.7325 52.2793 12.1695C51.8556 12.6255 51.3067 12.8535 50.6133 12.8535C49.9489 12.8535 49.4193 12.635 49.0244 12.198C48.6296 11.761 48.4274 11.21 48.4274 10.5545C48.4274 9.861 48.6296 9.291 49.0437 8.8445C49.4482 8.4075 49.997 8.1795 50.6904 8.1795ZM72.2126 8.1795C72.877 8.1795 73.4067 8.398 73.8207 8.835C74.2059 9.2625 74.3985 9.804 74.3985 10.4785C74.3985 11.1625 74.1963 11.7325 73.8015 12.1695C73.3778 12.6255 72.8289 12.8535 72.1356 12.8535C71.4711 12.8535 70.9415 12.635 70.5467 12.198C70.1519 11.761 69.9496 11.21 69.9496 10.5545C69.9496 9.861 70.1519 9.291 70.5659 8.8445C70.9704 8.4075 71.5193 8.1795 72.2126 8.1795ZM77.4319 8.1795C78.6163 8.1795 79.2133 8.797 79.2133 10.032V11.685C79.2133 12.1315 79.2133 12.4925 79.3096 12.749H78.4044L78.3082 12.236C78 12.6445 77.557 12.8535 76.9793 12.8535C76.5556 12.8535 76.2089 12.7205 75.9489 12.445C75.7082 12.2075 75.5926 11.894 75.5926 11.533C75.5926 10.9915 75.8237 10.5735 76.2859 10.279C76.7578 9.994 77.403 9.8515 78.2504 9.861V9.766C78.2504 9.177 77.9326 8.8825 77.3067 8.8825C76.8541 8.8825 76.4593 8.9965 76.1222 9.215L75.9104 8.5595C76.3341 8.303 76.8541 8.17 77.4704 8.17L77.4319 8.1795ZM91.4815 8.1795C92.1556 8.1795 92.637 8.398 93.0222 8.835C93.4074 9.2625 93.6 9.804 93.6 10.4785C93.6 11.1625 93.4074 11.7325 93.0222 12.1695C92.637 12.6255 92.0593 12.8535 91.3852 12.8535C90.7111 12.8535 90.2296 12.635 89.7481 12.198C89.363 11.761 89.1704 11.21 89.1704 10.5545C89.1704 9.861 89.363 9.291 89.8445 8.8445C90.2296 8.4075 90.8074 8.1795 91.4815 8.1795ZM53.8682 8.2745H54.8985L55.4089 10.4025C55.5341 10.906 55.64 11.3905 55.7267 11.837C55.823 11.4665 55.9193 10.9915 56.0926 10.412L56.7378 8.2745H57.5659L58.1822 10.3645C58.3267 10.8775 58.4519 11.3715 58.5385 11.8465C58.6348 11.381 58.7119 10.887 58.8467 10.3645L59.4052 8.2745H60.397L58.9719 12.749H58.0474L57.46 10.811C57.3059 10.3265 57.1904 9.842 57.0941 9.3575C56.9978 9.8515 56.8822 10.336 56.7282 10.811L56.1022 12.749H55.1682L53.8682 8.2745ZM114.785 8.8635C114.4 8.8635 114.111 8.9965 113.919 9.272C113.822 9.481 113.726 9.747 113.63 10.0415H115.748C115.748 9.747 115.652 9.4905 115.556 9.2815C115.363 9.006 115.074 8.8635 114.785 8.8635ZM50.6519 8.9585C50.2474 8.9585 49.9393 9.139 49.7274 9.4905C49.5444 9.785 49.4578 10.146 49.4578 10.5735C49.4578 10.9915 49.5541 11.343 49.7274 11.6375C49.9489 11.9985 50.2474 12.1695 50.6422 12.1695C51.0274 12.1695 51.3356 11.989 51.5474 11.628C51.74 11.324 51.8267 10.9725 51.8267 10.5545C51.8267 10.146 51.7304 9.785 51.557 9.4905C51.3452 9.139 51.0467 8.9585 50.6519 8.9585ZM72.1741 8.9585C71.7696 8.9585 71.4615 9.139 71.2496 9.4905C71.0667 9.785 70.98 10.146 70.98 10.5735C70.98 10.9915 71.0763 11.343 71.2496 11.6375C71.4711 11.9985 71.7696 12.1695 72.1645 12.1695C72.5496 12.1695 72.8481 11.989 73.0696 11.628C73.2526 11.324 73.3489 10.9725 73.3489 10.5545C73.3489 10.146 73.2526 9.785 73.0793 9.4905C72.8674 9.139 72.5689 8.9585 72.1741 8.9585ZM91.3852 8.9585C91 8.9585 90.7111 9.139 90.5185 9.4905C90.3259 9.785 90.2296 10.146 90.2296 10.5735C90.2296 10.9915 90.3259 11.343 90.5185 11.6375C90.7111 11.9985 91 12.1695 91.3852 12.1695C91.7704 12.1695 92.0593 11.989 92.3482 11.628C92.5407 11.324 92.637 10.9725 92.637 10.5545C92.637 10.146 92.5407 9.785 92.3482 9.4905C92.1556 9.139 91.7704 8.9585 91.3852 8.9585ZM82.9015 9.0535C82.5259 9.0535 82.2274 9.196 82.0156 9.4905C81.7941 9.785 81.6881 10.165 81.6881 10.6305C81.6881 11.0675 81.7941 11.4285 81.9963 11.704C82.2178 11.9985 82.5163 12.1505 82.8822 12.1505C83.2096 12.1505 83.4793 12.027 83.6815 11.78C83.8741 11.552 83.9704 11.2765 83.9704 10.963V10.2125V9.899C83.8741 9.6615 83.7874 9.462 83.6044 9.291C83.418 9.13101 83.1773 9.04621 82.9304 9.0535H82.9015ZM78.2311 10.621C77.1237 10.621 76.5652 10.8965 76.5652 11.5235C76.5652 11.7515 76.6615 11.932 76.7578 12.046C76.883 12.16 77.0563 12.217 77.2489 12.217C77.4704 12.217 77.6822 12.122 77.8652 12.0175C78.0578 11.875 78.1733 11.6945 78.2119 11.4855V11.305L78.2311 10.621ZM26.4622 11.8465H27.1652C27.9644 11.8465 30.2178 12.16 31.6719 14.25C31.5563 14.345 28.9852 15.808 29.0141 18.867C29.0141 22.5435 32.2689 23.75 32.3074 23.769C32.3074 23.864 31.797 25.517 30.5933 27.208C29.5822 28.6995 28.523 30.153 26.8474 30.1815C25.2104 30.1815 24.6615 29.2315 22.7933 29.2315C20.9059 29.2315 20.3185 30.153 18.7585 30.2195C17.16 30.3145 15.937 28.633 14.8874 27.151C12.7978 24.1395 11.1704 18.6675 13.3563 14.934C14.4156 13.11 16.3415 11.932 18.4022 11.9035C20.0007 11.9035 21.4837 12.9675 22.4756 12.9675C23.3133 12.9675 24.8252 11.9605 26.4622 11.837V11.8465ZM81.38 17.1C82.5452 17.1 83.5081 17.2995 84.2881 17.6985L83.7682 19.3515C83.0459 18.962 82.2274 18.772 81.3222 18.772C80.6 18.772 80.0319 18.9525 79.6274 19.2945C79.2807 19.608 79.117 19.988 79.117 20.444C79.117 20.938 79.3096 21.356 79.7044 21.679C80.0415 21.983 80.6674 22.306 81.563 22.6575C82.6704 23.0945 83.4793 23.6075 83.9993 24.1965C84.5193 24.776 84.7407 25.5075 84.7407 26.3815C84.7407 27.455 84.4037 28.329 83.643 29.013C82.8052 29.7445 81.64 30.115 80.1474 30.115C78.7704 30.115 77.663 29.849 76.8252 29.3265L77.3067 27.645C78.2022 28.177 79.1941 28.4525 80.2726 28.4525C81.043 28.4525 81.6496 28.272 82.083 27.93C82.5067 27.588 82.7282 27.1225 82.7282 26.5525C82.7282 26.0395 82.5452 25.6025 82.1889 25.251C81.8422 24.8995 81.2452 24.5765 80.4267 24.282C78.183 23.4555 77.0563 22.2395 77.0563 20.653C77.0563 19.608 77.4511 18.7625 78.2407 18.0975C79.0207 17.4325 80.0704 17.1 81.38 17.1ZM44.9607 17.29H47.5126L51.6533 29.925H49.4674L48.2733 26.22H44.1133L42.9674 29.925H40.8393L44.9607 17.29ZM89.2667 18.544V20.8145H91.5778V22.3345H89.2667V26.7615C89.2667 27.8825 89.7482 28.443 90.5185 28.443C90.9037 28.443 91.1926 28.443 91.3852 28.348L91.4815 29.887C91.0963 30.0295 90.5185 30.1055 89.8445 30.1055C89.0741 30.1055 88.4 29.8585 88.0148 29.374C87.5333 28.8895 87.2444 28.0725 87.2444 26.9135V22.325H85.8963V20.805H87.2444V19.133L89.2667 18.544ZM46.1452 18.9715C46.02 19.513 45.8178 20.311 45.5385 21.356L44.4696 24.662H47.917L46.8289 21.356C46.7133 21.0235 46.5015 20.2255 46.1837 18.9715H46.1452ZM113.822 20.6055C115.17 20.6055 116.133 21.0995 116.807 22.0685C117.385 22.8475 117.674 23.807 117.674 24.9375C117.674 25.2985 117.578 25.612 117.578 25.859H111.415C111.415 26.7615 111.704 27.4455 112.281 27.9205C112.763 28.348 113.437 28.557 114.304 28.557C115.17 28.557 116.037 28.4145 116.807 28.1295L117.096 29.5355C116.23 29.9155 115.17 30.096 114.015 30.096C112.57 30.096 111.415 29.678 110.644 28.8515C109.778 28.0155 109.393 26.904 109.393 25.5075C109.393 24.13 109.778 22.9805 110.548 22.0685C111.319 21.0995 112.474 20.6055 113.822 20.6055ZM58.4422 20.6055C59.54 20.6055 60.4452 21.033 61.177 21.8785C61.8993 22.7335 62.2652 23.8545 62.2652 25.2415C62.2652 26.79 61.8415 28.0155 60.9941 28.918C60.2333 29.716 59.2896 30.115 58.163 30.115C56.94 30.115 56.0637 29.6875 55.5341 28.823V33.6205H53.4444V23.8165C53.4444 22.838 53.4444 21.8405 53.3482 20.8145H55.1585L55.2644 22.2585C55.9482 21.166 56.9882 20.6245 58.3748 20.6245L58.4422 20.6055ZM69.0733 20.6055C70.1615 20.6055 71.0763 21.033 71.7985 21.8785C72.5304 22.7335 72.8963 23.8545 72.8963 25.2415C72.8963 26.79 72.4726 28.0155 71.6156 28.918C70.8644 29.716 69.9111 30.115 68.7844 30.115C67.5711 30.115 66.6948 29.6875 66.1652 28.823V33.6205H64.0756V23.8165C64.0756 22.838 64.0756 21.8405 63.9793 20.8145H65.78L65.8956 22.2585C66.5793 21.166 67.6193 20.6245 69.0156 20.6245L69.0733 20.6055ZM107.948 20.6055H108.43V22.534C108.237 22.534 108.044 22.439 107.852 22.439C107.081 22.439 106.504 22.7145 106.119 23.2465C105.83 23.7215 105.637 24.3295 105.637 25.0515V29.83H103.519L103.615 23.5885C103.615 22.534 103.519 21.584 103.519 20.7195H105.252L105.348 22.458H105.444C105.637 21.8595 106.022 21.3845 106.504 21.014C106.889 20.691 107.37 20.5295 107.948 20.5295V20.6055ZM97.3556 20.6055C98.7037 20.6055 99.763 21.052 100.63 21.9355C101.4 22.8 101.785 23.9115 101.785 25.2795C101.785 26.676 101.4 27.8255 100.533 28.728C99.6667 29.6495 98.6074 30.115 97.163 30.115C95.8148 30.115 94.7556 29.6685 93.8889 28.785C93.1185 27.892 92.7333 26.771 92.7333 25.422C92.7333 24.016 93.1185 22.857 93.9852 21.9545C94.7556 21.052 95.9111 20.6055 97.3556 20.6055ZM113.63 21.9925C112.956 21.9925 112.378 22.268 111.993 22.819C111.704 23.256 111.415 23.7785 111.415 24.396H115.652C115.652 23.788 115.556 23.275 115.267 22.838C114.881 22.2775 114.4 21.9925 113.63 21.9925ZM97.2593 22.0875C96.3926 22.0875 95.8148 22.4485 95.3333 23.18C95.0444 23.7785 94.8519 24.51 94.8519 25.3745C94.8519 26.22 95.0444 26.942 95.3333 27.5405C95.8148 28.272 96.3926 28.633 97.2593 28.633C98.0296 28.633 98.6074 28.2625 99.0889 27.5215C99.4741 26.9135 99.6667 26.182 99.6667 25.3365C99.6667 24.5005 99.4741 23.7785 99.0889 23.18C98.7037 22.4485 98.0296 22.0875 97.2593 22.0875ZM57.7778 22.2205C57.277 22.2205 56.8148 22.382 56.4007 22.7145C55.9867 23.047 55.717 23.484 55.5919 24.016C55.4956 24.2725 55.4956 24.472 55.4956 24.6335V26.1535C55.4956 26.8185 55.7074 27.379 56.1119 27.835C56.5259 28.291 57.0652 28.519 57.72 28.519C58.5 28.519 59.097 28.2245 59.5304 27.6355C59.9637 27.0465 60.1756 26.277 60.1756 25.308C60.1756 24.4245 59.9733 23.693 59.5689 23.1135C59.1259 22.534 58.5289 22.2395 57.7778 22.2395V22.2205ZM68.4089 22.2205C67.8985 22.2205 67.4459 22.382 67.0319 22.7145C66.6178 23.047 66.3481 23.484 66.223 24.016C66.1267 24.2725 66.1267 24.472 66.1267 24.6335V26.1535C66.1267 26.8185 66.3289 27.379 66.743 27.835C67.157 28.291 67.6867 28.519 68.3511 28.519C69.1215 28.519 69.7281 28.2245 70.1615 27.6355C70.5852 27.0465 70.8067 26.277 70.8067 25.308C70.8067 24.4245 70.6044 23.693 70.1904 23.1135C69.7474 22.515 69.16 22.2205 68.4089 22.2205Z" fill="black"/>
</svg>
