<svg width="130" height="38" viewBox="0 0 130 38" fill="none" xmlns="http://www.w3.org/2000/svg">
<g clip-path="url(#clip0_4_39)">
<path d="M130.018 34.2181C130.019 34.7181 129.922 35.2132 129.734 35.6748C129.547 36.1364 129.271 36.5553 128.924 36.9071C128.577 37.2589 128.164 37.5366 127.711 37.7243C127.258 37.9119 126.774 38.0056 126.285 38H3.6437C3.16228 38.0092 2.68401 37.9189 2.23752 37.7345C1.79103 37.5501 1.38552 37.2754 1.04527 36.9268C0.70503 36.5782 0.437056 36.163 0.257401 35.706C0.0777469 35.249 -0.00989033 34.7595 -0.000260943 34.267V3.72122C-0.00924471 3.22945 0.0789208 2.74089 0.258951 2.28481C0.438981 1.82874 0.707169 1.41455 1.04744 1.06707C1.38771 0.719586 1.79306 0.445969 2.23918 0.262617C2.68531 0.0792649 3.16303 -0.0100468 3.6437 3.52903e-05H126.285C128.355 3.52903e-05 130 1.61002 130 3.72629V34.2721L130.018 34.2181Z" fill="black"/>
<mask id="mask0_4_39" style="mask-type:luminance" maskUnits="userSpaceOnUse" x="14" y="7" width="13" height="26">
<path d="M14.2855 8.25242V32.0208C14.2714 32.1352 14.2947 32.2511 14.3516 32.3506C14.4086 32.4501 14.4961 32.5276 14.6006 32.5709L26.9726 20.0252L14.7029 7.57568C14.4571 7.64656 14.2855 7.87439 14.2855 8.25073" fill="white"/>
</mask>
<g mask="url(#mask0_4_39)">
<path d="M26.9694 7.57568H14.2856V32.5659H26.9694V7.57568Z" fill="url(#paint0_linear_4_39)"/>
</g>
<mask id="mask1_4_39" style="mask-type:luminance" maskUnits="userSpaceOnUse" x="14" y="7" width="17" height="14">
<path d="M14.7029 7.57563L26.9693 20.0184L30.3757 16.5622L25.262 13.538L25.2356 13.5228H25.2224H25.2108H25.1976L15.3512 7.68701C15.2075 7.60227 15.0452 7.55585 14.8794 7.552C14.8198 7.55204 14.7605 7.55998 14.7029 7.57563Z" fill="white"/>
</mask>
<g mask="url(#mask1_4_39)">
<path d="M30.3757 7.552H14.7029V20.0184H30.3757V7.552Z" fill="url(#paint1_linear_4_39)"/>
</g>
<mask id="mask2_4_39" style="mask-type:luminance" maskUnits="userSpaceOnUse" x="14" y="20" width="17" height="13">
<path d="M14.6006 32.5708C14.6897 32.5954 14.7829 32.6007 14.8741 32.5861C14.9653 32.5716 15.0525 32.5376 15.1301 32.4865L16.562 31.6426L25.2554 26.4954L27.8155 24.9766L30.3757 23.4577L26.9693 20.0032L14.6006 32.5708Z" fill="white"/>
</mask>
<g mask="url(#mask2_4_39)">
<path d="M30.3757 20.0183H14.6006V32.6147H30.3757V20.0183Z" fill="url(#paint2_linear_4_39)"/>
</g>
<mask id="mask3_4_39" style="mask-type:luminance" maskUnits="userSpaceOnUse" x="26" y="16" width="10" height="8">
<path d="M26.9692 20.0185L30.3757 23.473L34.1203 21.2623L35.2981 20.567C35.8556 20.2294 35.8226 19.789 35.3789 19.5156L35.3476 19.4987L35.3327 19.4886C34.8774 19.2388 30.9431 16.8998 30.4317 16.5943L30.3757 16.5623L26.9692 20.0185Z" fill="white"/>
</mask>
<g mask="url(#mask3_4_39)">
<path d="M35.8556 16.5623H26.9692V23.4747H35.8556V16.5623Z" fill="url(#paint3_linear_4_39)"/>
</g>
<path d="M94.1377 25.0476C93.6892 25.0535 93.2444 24.9621 92.8329 24.7793C92.4372 24.5966 92.0958 24.3102 91.8432 23.949H91.7623C91.8148 24.3609 91.8418 24.7757 91.8432 25.1911V28.271H90.728V17.4281H91.6287L91.7805 18.4524H91.8349C92.0843 18.074 92.4253 17.7681 92.8247 17.5648C93.2333 17.3758 93.6779 17.2824 94.1262 17.2914C95.0962 17.2914 95.8445 17.6289 96.3713 18.3039C96.8981 18.979 97.162 19.9302 97.1631 21.1577C97.1631 22.3863 96.8953 23.3426 96.3598 24.0266C95.8242 24.7107 95.0797 25.0482 94.1262 25.0392M93.9612 18.2465C93.2123 18.2465 92.6718 18.4581 92.3397 18.8811C92.0076 19.3041 91.836 19.9792 91.825 20.9062V21.1577C91.825 22.2085 91.9966 22.9612 92.3397 23.4157C92.6828 23.8702 93.2327 24.0953 93.9893 24.0908C94.2816 24.1004 94.5716 24.0334 94.8314 23.896C95.0913 23.7587 95.3125 23.5556 95.4739 23.306C95.8313 22.7829 96.0106 22.0611 96.0117 21.1408C96.0128 20.2205 95.8335 19.5049 95.4739 18.9942C95.3025 18.751 95.0746 18.5554 94.8108 18.4248C94.547 18.2943 94.2556 18.2331 93.9629 18.2465" fill="#FBFBFB"/>
<path d="M99.738 14.2874H98.6311V24.9126H99.738V14.2874Z" fill="#FBFBFB"/>
<path d="M106.109 24.9109L105.889 23.846H105.835C105.552 24.2492 105.18 24.5788 104.75 24.8079C104.318 24.9864 103.855 25.0709 103.39 25.056C102.666 25.056 102.098 24.8653 101.686 24.4839C101.275 24.1025 101.069 23.5586 101.068 22.852C101.068 21.3399 102.249 20.5478 104.613 20.4758L105.853 20.4337V19.9696C105.853 19.3823 105.731 18.957 105.484 18.6684C105.236 18.3798 104.84 18.2499 104.299 18.2499C103.689 18.2499 102.999 18.4406 102.229 18.822L101.889 17.9562C102.264 17.7502 102.661 17.5916 103.074 17.4837C103.495 17.3719 103.929 17.3152 104.365 17.3149C105.238 17.3149 105.883 17.5124 106.305 17.909C106.727 18.3056 106.935 18.9401 106.935 19.8143V24.921L106.109 24.9109ZM103.606 24.1127C104.296 24.1127 104.838 23.9191 105.231 23.5321C105.625 23.1451 105.822 22.6034 105.822 21.9069V21.2319L104.713 21.2791C103.833 21.3106 103.198 21.4507 102.808 21.6994C102.617 21.8202 102.462 21.9917 102.359 22.1956C102.257 22.3995 102.21 22.6281 102.224 22.8571C102.212 23.0314 102.239 23.2062 102.302 23.3685C102.365 23.5309 102.463 23.6768 102.589 23.7954C102.878 24.0255 103.24 24.1395 103.606 24.116" fill="#FBFBFB"/>
<path d="M107.574 17.428H108.761L110.358 21.696C110.624 22.3832 110.845 23.088 111.018 23.8055H111.071C111.129 23.5726 111.251 23.176 111.434 22.614C111.617 22.052 112.222 20.3239 113.248 17.428H114.436L111.292 25.9487C110.981 26.7914 110.617 27.3894 110.2 27.7427C109.768 28.1016 109.225 28.2891 108.669 28.2709C108.332 28.271 107.996 28.2319 107.668 28.1545V27.2465C107.939 27.3048 108.215 27.3325 108.493 27.3292C109.254 27.3292 109.796 26.8921 110.121 26.0179L110.528 24.953L107.574 17.428Z" fill="#FBFBFB"/>
<path d="M73.6134 18.1233C73.9648 18.4203 74.6989 19.0464 74.6989 20.2362C74.6989 21.3939 74.0572 21.944 73.4138 22.4588C73.2142 22.663 72.9866 22.8823 72.9866 23.2266C72.9866 23.5709 73.2142 23.7582 73.3841 23.9017L73.9351 24.3388C74.6081 24.9176 75.2201 25.4509 75.2201 26.5327C75.2201 28.0043 73.8279 29.491 71.1968 29.491C68.9781 29.491 67.9075 28.411 67.9075 27.2516C67.9075 26.6879 68.1813 25.8914 69.0853 25.3412C70.0322 24.7472 71.3188 24.6662 72.0067 24.6223C71.7923 24.3404 71.5481 24.0434 71.5481 23.5591C71.5527 23.3461 71.6052 23.137 71.7016 22.9482C71.5366 22.9634 71.3634 22.9785 71.2067 22.9785C69.5868 22.9785 68.6679 21.7415 68.6679 20.5214C68.6757 20.1205 68.7671 19.7259 68.9361 19.3641C69.1051 19.0023 69.3478 18.6817 69.6478 18.4237C70.5188 17.6879 71.5597 17.563 72.3861 17.563H75.5369L74.562 18.1233H73.6134ZM72.5264 25.0729C72.4097 25.0595 72.2923 25.0544 72.175 25.0577C71.6309 25.0682 71.0906 25.1527 70.5683 25.3091C70.2384 25.4323 69.2486 25.8154 69.2486 26.9208C69.2486 28.0262 70.3043 28.8312 71.9407 28.8312C73.4089 28.8312 74.1908 28.1089 74.1908 27.1436C74.1908 26.3436 73.686 25.9217 72.5214 25.0762M72.9668 22.1027C73.3182 21.7415 73.3479 21.242 73.3479 20.9602C73.3479 19.8328 72.688 18.0794 71.4211 18.0794C71.2168 18.0824 71.0154 18.13 70.8305 18.2191C70.6455 18.3081 70.4814 18.4366 70.3489 18.5958C70.1127 18.9324 69.9963 19.3415 70.019 19.7552C70.019 20.8032 70.6161 22.5415 71.9325 22.5415C72.3205 22.5317 72.6913 22.3754 72.9734 22.1027" fill="#FBFBFB"/>
<path d="M63.9813 24.8231C61.5531 24.8231 60.2549 22.8857 60.2549 21.134C60.2549 19.0869 61.888 17.3385 64.2139 17.3385C64.6923 17.3277 65.168 17.4153 65.6127 17.5961C66.0574 17.777 66.462 18.0474 66.8025 18.3914C67.143 18.7353 67.4125 19.1458 67.5949 19.5984C67.7774 20.051 67.869 20.5364 67.8645 21.026C67.8645 22.8689 66.4755 24.8231 63.9846 24.8231M65.8932 23.5574C66.2611 23.0511 66.3535 22.4318 66.3535 21.8225C66.3535 20.4471 65.7118 17.8212 63.8164 17.8212C63.3112 17.8263 62.8243 18.0147 62.4423 18.3528C61.8467 18.8996 61.7395 19.5881 61.7395 20.2598C61.7395 21.8057 62.4884 24.3523 64.336 24.3523C64.638 24.3522 64.9359 24.2804 65.2061 24.1424C65.4763 24.0045 65.7116 23.8042 65.8932 23.5574Z" fill="#FBFBFB"/>
<path d="M55.702 24.8231C53.2738 24.8231 51.9739 22.8857 51.9739 21.134C51.9739 19.0869 53.6103 17.3385 55.9329 17.3385C56.4113 17.3277 56.887 17.4153 57.3317 17.5961C57.7763 17.777 58.181 18.0474 58.5215 18.3914C58.862 18.7353 59.1315 19.1458 59.3139 19.5984C59.4963 20.051 59.588 20.5364 59.5835 21.026C59.5835 22.8689 58.1945 24.8231 55.7036 24.8231M57.6139 23.5574C57.9801 23.0511 58.0708 22.4318 58.0708 21.8225C58.0708 20.4471 57.4291 17.8212 55.5354 17.8212C55.0302 17.8263 54.5433 18.0147 54.1612 18.3528C53.5657 18.8996 53.4585 19.5881 53.4585 20.2598C53.4585 21.8057 54.2058 24.3523 56.055 24.3523C56.3572 24.3522 56.6553 24.2804 56.9258 24.1425C57.1963 24.0045 57.4319 23.8043 57.6139 23.5574Z" fill="#FBFBFB"/>
<path d="M50.8078 24.5784L48.6122 25.0964C47.7756 25.2528 46.9285 25.3419 46.0784 25.3631C41.8389 25.3631 40.2256 22.1735 40.2256 19.6758C40.2256 16.628 42.5152 13.7996 46.4314 13.7996C47.2256 13.8038 48.0157 13.9174 48.7804 14.1371C49.5097 14.326 50.1975 14.6541 50.8078 15.1041L49.5326 16.3445L48.9932 16.4711L49.3776 15.8416C48.8563 15.3235 47.9028 14.3649 46.0916 14.3649C43.665 14.3649 41.8372 16.2517 41.8372 19.0008C41.8372 21.9541 43.9256 24.7387 47.2727 24.7387C47.9435 24.7556 48.6097 24.6213 49.2241 24.3455V21.814L46.9048 21.9389L48.1338 21.2639H51.3884L50.9909 21.6554C50.9496 21.6842 50.9145 21.7214 50.8878 21.7646C50.8611 21.8079 50.8434 21.8563 50.8358 21.9069C50.821 22.0486 50.8061 22.506 50.8061 22.6612L50.8078 24.5784Z" fill="#FBFBFB"/>
<path d="M78.4682 24.1328C77.9601 24.0855 77.8545 23.991 77.8545 23.3767V14.478C77.8545 14.4442 77.8545 14.4104 77.8628 14.3767C77.9255 13.8282 78.0789 13.7337 78.5556 13.4502H76.3583L75.2036 14.0155H76.3765V23.7176C76.3765 24.0298 76.3171 24.0788 75.9624 24.5496H78.6859L79.255 24.2121C78.9944 24.1784 78.7321 24.1632 78.4715 24.1328" fill="#FBFBFB"/>
<path d="M84.7167 24.2697C84.5518 24.3642 84.3868 24.4739 84.2219 24.5515C83.7533 24.7573 83.247 24.858 82.7372 24.8469C82.0137 24.8802 81.3 24.6665 80.7082 24.2393C79.6261 23.4579 79.1543 22.1163 79.1543 20.9468C79.1543 18.5284 81.0744 17.342 82.6465 17.342C83.2001 17.3349 83.7446 17.4863 84.2186 17.7791C84.7514 18.1379 85.1321 18.6895 85.2842 19.3233L81.7013 20.8067L80.5268 20.8995C80.9062 22.8808 82.2193 24.0351 83.661 24.0351C84.4396 24.0351 85.0038 23.755 85.5218 23.49L84.7167 24.2697ZM83.2832 19.6203C83.5736 19.5106 83.7253 19.4161 83.7253 19.1984C83.7253 18.5757 83.0391 17.8483 82.216 17.8483C81.604 17.8483 80.4608 18.3327 80.4608 20.0169C80.4608 20.2819 80.4921 20.5637 80.5086 20.8455L83.2832 19.6203Z" fill="#FBFBFB"/>
<path d="M86.1899 17.4484V18.4795H86.0662V17.4484H85.7346V17.342H86.5215V17.4484H86.1899Z" fill="#FBFBFB"/>
<path d="M87.5607 18.4795V17.4399H87.5557L87.2456 18.4795H87.1499L86.8365 17.4399H86.8332V18.4795H86.7227V17.342H86.9124L87.1961 18.2601H87.1994L87.4782 17.342H87.6712V18.4795H87.5607Z" fill="#FBFBFB"/>
<path d="M43.2773 10.7401H42.5135C42.4681 10.4302 42.3952 10.1251 42.2957 9.82874H41.1938C41.0902 10.1243 41.015 10.4295 40.9695 10.7401H40.2502C40.2502 10.6782 40.4355 10.1578 40.8062 9.17901C41.1768 8.2002 41.3626 7.66185 41.3637 7.56396H42.2644C42.2644 7.65622 42.4327 8.18669 42.7692 9.15538C43.1057 10.1241 43.274 10.6523 43.274 10.7401M42.172 9.36296C42.0133 8.91635 41.8767 8.4618 41.7629 8.00106H41.7349C41.6165 8.46199 41.4756 8.91653 41.3126 9.36296H42.172Z" fill="#FCFCFD"/>
<path d="M46.3538 10.74H45.7649C45.7649 10.6736 45.5449 10.3215 45.105 9.68357C44.6481 9.00852 44.3858 8.55286 44.3231 8.30647H44.2852C44.3226 8.62685 44.3424 8.94913 44.3446 9.27179C44.3446 9.67344 44.3555 10.1628 44.3775 10.74H43.7903C43.8145 10.2371 43.8266 9.68356 43.8266 9.0794C43.8266 8.47523 43.8145 7.96895 43.7903 7.56055H44.4996C44.4996 7.64605 44.6959 7.99033 45.0885 8.59337C45.5064 9.23128 45.7462 9.66444 45.8077 9.89283H45.844C45.8086 9.56892 45.7898 9.24332 45.788 8.91739C45.788 8.47748 45.7764 8.02745 45.7533 7.5673H46.3538C46.3307 7.97064 46.3191 8.47692 46.3191 9.08615C46.3191 9.69538 46.3307 10.2506 46.3538 10.7468" fill="#FCFCFD"/>
<path d="M49.8079 9.04217C49.8142 9.48645 49.6597 9.91742 49.3741 10.2522C49.2226 10.4266 49.0347 10.5638 48.8241 10.6535C48.6136 10.7432 48.386 10.7831 48.1583 10.7703C47.9219 10.7703 47.5975 10.7602 47.1851 10.7399C47.2049 10.2488 47.2164 9.69527 47.2164 9.07929C47.2164 8.46331 47.2049 7.98234 47.1851 7.56044H47.6024C47.67 7.56044 47.7674 7.56044 47.9076 7.56044L48.1715 7.552C48.7456 7.552 49.1618 7.69882 49.4203 7.99247C49.6765 8.27977 49.8153 8.65669 49.8079 9.04554M49.1563 9.15186C49.1652 8.86393 49.0701 8.58274 48.8891 8.36206C48.7854 8.24962 48.6583 8.16244 48.5173 8.10695C48.3762 8.05145 48.2248 8.02906 48.0742 8.04141C47.9798 8.04304 47.8856 8.05036 47.7921 8.06335C47.8086 8.38737 47.8169 8.72827 47.8169 9.07592C47.8169 9.46407 47.8251 9.85053 47.8399 10.2319C47.942 10.2534 48.0459 10.2642 48.1501 10.264C48.293 10.2754 48.4365 10.2518 48.5688 10.1952C48.701 10.1385 48.8182 10.0505 48.9105 9.93829C49.0775 9.70979 49.1641 9.43028 49.1563 9.14511" fill="#FCFCFD"/>
<path d="M52.9949 10.7399H52.2922C52.1925 10.369 52.0502 10.0116 51.8683 9.675C51.8107 9.60432 51.7373 9.54897 51.6543 9.5137C51.5712 9.47843 51.4811 9.46429 51.3915 9.47248H51.1259C51.1259 9.89101 51.1259 10.3163 51.1474 10.7382H50.4875C50.5084 10.2465 50.5189 9.693 50.5189 9.07758C50.5189 8.48579 50.5084 7.97951 50.4875 7.55873H50.8999H51.2002C51.3519 7.55873 51.4922 7.55029 51.6208 7.55029C52.3499 7.55029 52.7145 7.80625 52.7145 8.31816C52.7145 8.7215 52.5067 9.00502 52.091 9.16196V9.19909C52.275 9.26587 52.4264 9.40325 52.5133 9.58218C52.7059 9.95505 52.8713 10.342 53.0081 10.7399M52.1141 8.49536C52.1141 8.17246 51.9106 8.01101 51.5037 8.01101C51.371 8.00975 51.2385 8.02105 51.1078 8.04476C51.1243 8.29622 51.1342 8.6253 51.1342 9.03033H51.3552C51.8622 9.03033 52.1152 8.85032 52.1141 8.49029" fill="#FCFCFD"/>
<path d="M56.4162 9.09456C56.4317 9.55227 56.2705 9.99783 55.9675 10.335C55.8282 10.4937 55.6571 10.6199 55.4658 10.705C55.2745 10.79 55.0675 10.8319 54.859 10.8277C54.6621 10.8323 54.4665 10.7944 54.2848 10.7165C54.1032 10.6385 53.9397 10.5223 53.8049 10.3755C53.6635 10.2221 53.5532 10.0415 53.4804 9.84426C53.4076 9.64699 53.3738 9.43691 53.3809 9.22619C53.3652 8.76793 53.5264 8.32174 53.8296 7.98411C53.9682 7.82619 54.1383 7.70049 54.3284 7.61548C54.5184 7.53048 54.7241 7.48814 54.9316 7.49132C55.1283 7.48685 55.3238 7.52464 55.5053 7.60225C55.6869 7.67987 55.8505 7.79558 55.9857 7.94192C56.1284 8.09532 56.24 8.2762 56.3139 8.47406C56.3878 8.67193 56.4226 8.88284 56.4162 9.09456ZM55.7564 9.16375C55.7696 8.86609 55.6796 8.57321 55.5023 8.33682C55.4283 8.23781 55.3329 8.15766 55.2236 8.10262C55.1143 8.04758 54.994 8.01915 54.8722 8.01955C54.7556 8.02052 54.6409 8.05016 54.5378 8.10596C54.4348 8.16177 54.3463 8.2421 54.28 8.34019C54.1119 8.57374 54.0264 8.85877 54.0375 9.14856C54.025 9.44587 54.1155 9.73815 54.2932 9.9738C54.3665 10.073 54.4612 10.1535 54.5699 10.2091C54.6787 10.2647 54.7985 10.2939 54.92 10.2944C55.0366 10.2936 55.1514 10.264 55.2544 10.2082C55.3575 10.1524 55.446 10.072 55.5122 9.9738C55.6811 9.73996 55.7672 9.45429 55.7564 9.16375Z" fill="#FCFCFD"/>
<path d="M57.7623 10.74H57.0876C57.1074 10.2337 57.119 9.68357 57.119 9.0794C57.119 8.47523 57.1074 7.98076 57.0876 7.56055H57.7623C57.7403 7.9712 57.7299 8.47748 57.731 9.0794C57.7321 9.68131 57.7425 10.2349 57.7623 10.74Z" fill="#FCFCFD"/>
<path d="M61.2183 9.04217C61.2246 9.48645 61.0701 9.91742 60.7845 10.2522C60.6331 10.4267 60.4451 10.564 60.2346 10.6537C60.0241 10.7434 59.7964 10.7833 59.5687 10.7703C59.3334 10.7703 59.009 10.7602 58.5955 10.7399C58.6153 10.2488 58.6268 9.69527 58.6268 9.07929C58.6268 8.46331 58.6153 7.98234 58.5955 7.56044H59.0128C59.0804 7.56044 59.1778 7.56044 59.318 7.56044L59.5819 7.552C60.156 7.552 60.5722 7.69882 60.8307 7.99247C61.0869 8.27977 61.2257 8.65669 61.2183 9.04554M60.5667 9.15186C60.5764 8.86381 60.4812 8.58234 60.2995 8.36206C60.1959 8.24943 60.0689 8.16211 59.9278 8.1066C59.7867 8.05109 59.6352 8.02881 59.4846 8.04141C59.3908 8.04305 59.2971 8.05037 59.2042 8.06335C59.219 8.38737 59.2273 8.72827 59.2273 9.07592C59.2273 9.46407 59.2273 9.85053 59.252 10.2319C59.3535 10.2534 59.4568 10.2642 59.5605 10.264C59.7034 10.2756 59.847 10.252 59.9793 10.1954C60.1115 10.1387 60.2287 10.0506 60.3209 9.93829C60.4886 9.71016 60.5753 9.4304 60.5667 9.14511" fill="#FCFCFD"/>
<path d="M65.8042 10.7401H65.0405C64.9951 10.4303 64.9228 10.1253 64.8244 9.82874H63.7224C63.6179 10.124 63.5428 10.4293 63.4981 10.7401H62.7805C62.7805 10.6782 62.9658 10.1578 63.3364 9.17901C63.707 8.2002 63.8929 7.66185 63.894 7.56396H64.7947C64.7947 7.65622 64.9629 8.18669 65.2995 9.15538C65.636 10.1241 65.8042 10.6523 65.8042 10.7401ZM64.7023 9.36296C64.5436 8.9165 64.4076 8.46193 64.2949 8.00106H64.2553C64.2553 8.06519 64.115 8.51747 63.8346 9.36296H64.7023Z" fill="#FCFCFD"/>
<path d="M68.5855 8.39589C68.5964 8.56506 68.563 8.73415 68.4888 8.88573C68.4145 9.03731 68.3021 9.1659 68.1632 9.25826C67.8501 9.45108 67.4892 9.5472 67.1239 9.53503C67.0497 9.53503 66.9953 9.53503 66.959 9.53503C66.959 9.84217 66.9678 10.2455 66.9854 10.745H66.314C66.3338 10.2759 66.3453 9.72235 66.3453 9.08443C66.3453 8.49883 66.3338 7.99424 66.314 7.56558H66.728C66.7874 7.56558 66.893 7.56558 67.0678 7.56558C67.2427 7.56558 67.3796 7.55714 67.5017 7.55714C67.7733 7.54544 68.0422 7.61714 68.2737 7.76303C68.3759 7.83154 68.4585 7.92648 68.5133 8.03821C68.568 8.14995 68.5929 8.27451 68.5855 8.39926M67.9702 8.53427C67.9702 8.18437 67.7447 8.00999 67.2938 8.01111C67.1736 8.01151 67.0537 8.02395 66.9359 8.04824C66.9524 8.35539 66.9623 8.70303 66.9623 9.09287C67.0018 9.09287 67.048 9.09287 67.0992 9.09287C67.6798 9.09287 67.9702 8.90386 67.9702 8.52921" fill="#FCFCFD"/>
<path d="M71.4459 8.39578C71.4564 8.56491 71.4229 8.73387 71.3487 8.88539C71.2745 9.0369 71.1623 9.16555 71.0236 9.25815C70.7104 9.4508 70.3496 9.5469 69.9843 9.53492C69.9101 9.53492 69.8557 9.53492 69.8194 9.53492C69.8194 9.84207 69.8282 10.2454 69.8458 10.7449H69.176C69.1958 10.2758 69.2074 9.72225 69.2074 9.08433C69.2074 8.49873 69.1958 7.99413 69.176 7.56548H69.5901C69.6495 7.56548 69.755 7.56548 69.9282 7.56548C70.1015 7.56548 70.24 7.55704 70.3637 7.55704C70.6348 7.54588 70.903 7.61755 71.1341 7.76293C71.2363 7.83144 71.3189 7.92637 71.3737 8.03811C71.4285 8.14984 71.4534 8.2744 71.4459 8.39916M70.8306 8.53417C70.8306 8.18427 70.6046 8.00988 70.1526 8.01101C70.0329 8.0115 69.9136 8.02393 69.7963 8.04813C69.8128 8.35528 69.8227 8.70293 69.8227 9.09277C69.8623 9.09277 69.9084 9.09277 69.9596 9.09277C70.5402 9.09277 70.8306 8.90376 70.8306 8.52911" fill="#FCFCFD"/>
<path d="M76.1224 9.09456C76.1372 9.55215 75.9761 9.99745 75.6737 10.335C75.534 10.4942 75.3623 10.6206 75.1704 10.7057C74.9785 10.7907 74.7709 10.8324 74.5619 10.8277C74.3649 10.8326 74.1692 10.7949 73.9875 10.7169C73.8059 10.639 73.6424 10.5226 73.5078 10.3755C73.366 10.2223 73.2556 10.0418 73.1828 9.84446C73.11 9.64713 73.0763 9.43696 73.0838 9.22619C73.0681 8.76825 73.2286 8.32229 73.5309 7.98411C73.6706 7.82536 73.842 7.6992 74.0336 7.61418C74.2251 7.52916 74.4323 7.48726 74.641 7.49132C74.8378 7.48685 75.0332 7.52464 75.2148 7.60225C75.3964 7.67987 75.56 7.79558 75.6951 7.94192C75.8367 8.09586 75.9471 8.27699 76.0199 8.47483C76.0926 8.67267 76.1263 8.8833 76.1191 9.09456M75.4592 9.16375C75.472 8.86588 75.3814 8.57298 75.2035 8.33682C75.13 8.23775 75.0349 8.15752 74.9258 8.10246C74.8168 8.04741 74.6967 8.01902 74.575 8.01955C74.4584 8.02038 74.3437 8.04996 74.2406 8.10578C74.1375 8.16159 74.0491 8.242 73.9828 8.34019C73.8148 8.57374 73.7293 8.85877 73.7404 9.14856C73.7271 9.44597 73.8178 9.7385 73.996 9.9738C74.0701 10.0739 74.1658 10.155 74.2758 10.2106C74.3857 10.2663 74.5068 10.295 74.6295 10.2944C74.7459 10.2936 74.8604 10.264 74.9632 10.2082C75.066 10.1524 75.1541 10.072 75.22 9.9738C75.3889 9.74124 75.4751 9.45663 75.4642 9.16712" fill="#FCFCFD"/>
<path d="M79.354 10.74H78.7651C78.7651 10.6736 78.5452 10.3215 78.1053 9.68357C77.6467 9.00852 77.386 8.54949 77.3233 8.30647H77.2838C77.3217 8.62683 77.342 8.9491 77.3448 9.27179C77.3448 9.67344 77.3547 10.1628 77.3778 10.74H76.7905C76.8147 10.2371 76.8268 9.68356 76.8268 9.0794C76.8268 8.47523 76.8147 7.96895 76.7905 7.56055H77.4982C77.4982 7.64662 77.6962 7.99089 78.0888 8.59337C78.5056 9.23128 78.7453 9.66444 78.808 9.89283H78.8509C78.8149 9.56894 78.7956 9.24335 78.7931 8.91739C78.7931 8.47692 78.7832 8.02464 78.7601 7.5673H79.3557C79.3342 7.97064 79.3227 8.47692 79.3227 9.08615C79.3227 9.69538 79.3342 10.2506 79.3557 10.7468" fill="#FCFCFD"/>
</g>
<defs>
<linearGradient id="paint0_linear_4_39" x1="21.251" y1="7.05124" x2="21.251" y2="32.784" gradientUnits="userSpaceOnUse">
<stop stop-color="#2079B0"/>
<stop offset="0.32" stop-color="#4A98B5"/>
<stop offset="0.78" stop-color="#81BFBC"/>
<stop offset="1" stop-color="#97CFBF"/>
</linearGradient>
<linearGradient id="paint1_linear_4_39" x1="14.3999" y1="14.3431" x2="30.4901" y2="14.3431" gradientUnits="userSpaceOnUse">
<stop stop-color="#5ABCAB"/>
<stop offset="1" stop-color="#E6E99A"/>
</linearGradient>
<linearGradient id="paint2_linear_4_39" x1="21.0113" y1="20.4199" x2="21.0113" y2="33.3791" gradientUnits="userSpaceOnUse">
<stop stop-color="#E53432"/>
<stop offset="0.18" stop-color="#D43745"/>
<stop offset="0.73" stop-color="#A33E7C"/>
<stop offset="1" stop-color="#904192"/>
</linearGradient>
<linearGradient id="paint3_linear_4_39" x1="33.8172" y1="15.8193" x2="33.8172" y2="22.7318" gradientUnits="userSpaceOnUse">
<stop stop-color="#F18779"/>
<stop offset="0.64" stop-color="#F9B574"/>
<stop offset="1" stop-color="#FDCB72"/>
</linearGradient>
<clipPath id="clip0_4_39">
<rect width="130" height="38" fill="white"/>
</clipPath>
</defs>
</svg>
